<svg xmlns="http://www.w3.org/2000/svg" xmlns:xlink="http://www.w3.org/1999/xlink" width="200" zoomAndPan="magnify" viewBox="0 0 150 149.999998" height="200" preserveAspectRatio="xMidYMid meet" version="1.0"><defs><clipPath id="33eb7dcbfa"><path d="M 7.945312 3.109375 L 143 3.109375 L 143 148.609375 L 7.945312 148.609375 Z M 7.945312 3.109375 " clip-rule="nonzero"/></clipPath></defs><g clip-path="url(#33eb7dcbfa)"><path fill="#36e9fd" d="M 71.945312 147.789062 C 50.867188 137.351562 37.867188 127.5 31.027344 116.785156 C 25.269531 107.761719 24.632812 98.933594 24.9375 91.371094 C 21.003906 90.714844 16.988281 89.867188 12.988281 88.851562 L 7.953125 87.578125 L 24.921875 61.164062 C 22.441406 43.988281 16.570312 36.132812 16.511719 36.058594 L 13.898438 32.777344 L 17.496094 30.566406 C 34.054688 20.382812 41.882812 5.308594 41.964844 5.15625 L 43.007812 3.109375 L 104.203125 3.109375 L 105.242188 5.15625 C 105.320312 5.304688 113.148438 20.386719 129.714844 30.574219 L 133.328125 32.78125 L 130.671875 36.09375 C 130.628906 36.148438 125.140625 43.523438 122.527344 59.644531 L 128.375 53.46875 C 129.261719 52.53125 130.511719 52.015625 131.894531 52.015625 C 132.753906 52.015625 133.675781 52.214844 134.628906 52.609375 C 136.023438 53.1875 137.535156 54.210938 138.882812 55.484375 C 140.238281 56.761719 141.339844 58.21875 141.992188 59.578125 C 143.679688 63.109375 142.027344 65.273438 141.476562 65.855469 L 125.558594 82.667969 C 130.097656 88.523438 131.113281 92.855469 128.5625 95.546875 L 126.402344 97.828125 C 125.730469 98.546875 124.507812 99.410156 122.523438 99.410156 C 122.394531 99.410156 122.265625 99.40625 122.136719 99.398438 C 121.671875 104.640625 120.109375 112.074219 113.726562 120.261719 C 106.480469 129.5625 93.898438 138.566406 75.277344 147.789062 L 73.617188 148.609375 Z M 71.945312 147.789062 " fill-opacity="1" fill-rule="nonzero"/></g><path fill="#889baa" d="M 40.449219 111.113281 C 39.738281 112.414062 38.457031 114.894531 37.3125 117.773438 C 29.675781 108.09375 29.019531 98.976562 29.621094 89.128906 C 31.839844 89.425781 34.035156 89.667969 36.199219 89.835938 C 35.863281 95.414062 35.984375 99.878906 37.414062 104.367188 C 36.625 105.835938 35.953125 107.378906 35.363281 108.957031 L 35.046875 109.820312 L 35.953125 110.035156 Z M 101.414062 7.671875 L 45.796875 7.671875 C 44.34375 10.332031 36.320312 24.070312 20.636719 33.984375 C 22.253906 36.355469 26.988281 44.382812 29.316406 59.710938 L 34.519531 51.609375 C 33.265625 46.074219 31.617188 41.027344 29.59375 36.621094 L 29.324219 36.023438 L 29.847656 35.621094 C 39.960938 27.914062 46.382812 19.175781 49.304688 14.652344 L 49.546875 14.277344 L 97.65625 14.277344 L 97.898438 14.652344 C 100.824219 19.175781 107.242188 27.914062 117.355469 35.621094 L 117.878906 36.023438 L 117.609375 36.621094 C 116.445312 39.171875 115.386719 41.957031 114.464844 44.921875 L 115.800781 45.242188 L 115.480469 46.109375 C 115.402344 46.324219 114.515625 48.691406 112.546875 52.242188 C 111.359375 57.660156 110.570312 63.535156 110.214844 69.710938 C 110.164062 70.53125 110.132812 71.363281 110.117188 72.234375 C 111.167969 72.929688 112.109375 73.617188 112.804688 74.148438 L 116.816406 69.910156 C 118.144531 47.863281 124.621094 36.84375 126.5625 33.992188 C 110.890625 24.070312 102.867188 10.332031 101.414062 7.671875 Z M 101.414062 7.671875 " fill-opacity="1" fill-rule="nonzero"/><path fill="#38485f" d="M 113.511719 69.902344 C 113.203125 75.144531 113.589844 80.046875 113.957031 84.792969 C 114.695312 94.191406 115.335938 102.3125 110.550781 110.875 C 105.347656 120.203125 93.878906 129.359375 75.496094 138.855469 L 73.601562 139.835938 L 71.707031 138.855469 C 53.324219 129.359375 41.859375 120.203125 36.652344 110.875 C 31.867188 102.308594 32.507812 94.191406 33.242188 84.792969 C 33.617188 80.046875 34.003906 75.144531 33.691406 69.902344 C 32.773438 54.332031 29.324219 43.957031 26.59375 37.996094 L 25.246094 35.066406 L 33.972656 37.113281 L 51.953125 18.515625 L 47.710938 11.042969 L 47.75 10.976562 L 99.453125 10.976562 L 99.523438 11.082031 L 96.757812 15.925781 L 115.839844 36.535156 L 121.917969 35.152344 L 120.609375 38 C 117.882812 43.957031 114.429688 54.332031 113.511719 69.902344 Z M 113.511719 69.902344 " fill-opacity="1" fill-rule="nonzero"/><path fill="#012130" d="M 51.957031 18.511719 L 33.976562 37.109375 L 25.25 35.066406 L 25.21875 34.988281 L 27.847656 32.988281 C 33.253906 28.867188 37.566406 24.433594 40.8125 20.566406 L 44.015625 21.878906 L 42.328125 18.707031 C 42.703125 18.230469 43.066406 17.769531 43.410156 17.316406 L 45.089844 17.878906 L 44.488281 15.847656 C 45.308594 14.722656 45.988281 13.710938 46.539062 12.855469 L 47.71875 11.035156 Z M 119.363281 32.988281 C 109.660156 25.597656 103.488281 17.203125 100.671875 12.859375 L 99.523438 11.078125 L 96.757812 15.921875 L 115.839844 36.53125 L 121.917969 35.148438 L 121.988281 34.992188 Z M 119.363281 32.988281 " fill-opacity="1" fill-rule="nonzero"/><path fill="#edf2f8" d="M 112.046875 92.101562 L 96.910156 86.804688 C 96.722656 87.601562 96.488281 88.355469 96.242188 89.128906 C 96.050781 89.652344 95.878906 90.183594 95.65625 90.691406 C 95.445312 91.207031 95.238281 91.722656 94.992188 92.222656 C 94.066406 94.242188 92.972656 96.183594 91.691406 97.988281 C 90.394531 99.78125 89.03125 101.519531 87.429688 103.042969 C 87.042969 103.429688 86.664062 103.828125 86.230469 104.175781 L 84.984375 105.246094 C 84.582031 105.613281 84.113281 105.917969 83.675781 106.242188 C 83.230469 106.5625 82.789062 106.882812 82.339844 107.191406 C 83.089844 106.390625 83.882812 105.648438 84.613281 104.851562 C 85.328125 104.035156 86.085938 103.269531 86.753906 102.417969 L 87.777344 101.171875 L 88.738281 99.878906 C 89.074219 99.460938 89.367188 99.011719 89.664062 98.570312 C 89.957031 98.117188 90.277344 97.695312 90.546875 97.230469 L 91.375 95.855469 C 91.636719 95.390625 91.882812 94.917969 92.136719 94.449219 C 92.402344 93.984375 92.613281 93.5 92.855469 93.023438 C 93.097656 92.546875 93.308594 92.058594 93.515625 91.566406 C 93.945312 90.59375 94.292969 89.589844 94.648438 88.589844 C 94.960938 87.644531 95.242188 86.65625 95.4375 85.726562 L 93.171875 77.199219 C 90.777344 82.511719 87.03125 87.210938 82.371094 90.703125 C 83.675781 88.890625 84.917969 86.722656 85.820312 84.679688 C 82.34375 88.597656 77.839844 91.679688 73.019531 93.742188 C 73.722656 92.484375 74.28125 91.023438 74.355469 89.585938 C 76.136719 88.304688 77.757812 86.679688 79.101562 84.949219 C 77.1875 86.445312 74.894531 87.832031 72.625 88.769531 C 67.628906 92.875 60.195312 98.273438 52.226562 101.601562 L 64.085938 110.71875 L 63.15625 115.359375 L 69.195312 117.429688 L 68.296875 140.796875 C 69.992188 141.695312 71.757812 142.601562 73.605469 143.519531 C 77.679688 141.492188 81.378906 139.511719 84.742188 137.574219 L 82.9375 131.492188 L 85.789062 133.753906 L 83.289062 128.425781 L 85.546875 126.324219 C 85.546875 117.121094 91.121094 111.875 91.121094 111.875 C 88.941406 115.992188 88.457031 120.109375 88.457031 120.109375 C 92.417969 110.175781 102.1875 101.714844 102.1875 101.714844 C 104.203125 99.523438 106.367188 97.46875 108.730469 95.671875 C 106.710938 97.847656 104.773438 100.066406 102.917969 102.34375 C 101.0625 104.625 99.304688 106.980469 97.8125 109.484375 C 96.324219 111.984375 95.027344 114.609375 94.289062 117.359375 C 94.109375 118.058594 93.964844 118.714844 93.871094 119.433594 L 93.613281 121.625 L 93.078125 126.019531 L 93.035156 126.332031 L 92.800781 126.535156 L 90.285156 128.757812 C 90.585938 129.601562 90.871094 130.449219 91.140625 131.304688 C 91.34375 131.964844 91.539062 132.632812 91.722656 133.300781 C 112.769531 119.578125 116.976562 108.09375 117.660156 98.082031 C 115.035156 94.550781 112.5625 92.503906 112.046875 92.101562 Z M 81.042969 99.75 C 80.457031 100.355469 79.863281 100.945312 79.238281 101.511719 C 77.695312 102.929688 75.980469 104.175781 74.183594 105.261719 C 73.726562 105.527344 73.273438 105.785156 72.808594 106.039062 C 72.339844 106.277344 71.855469 106.484375 71.382812 106.707031 L 70.660156 107.019531 C 70.417969 107.113281 70.167969 107.203125 69.917969 107.285156 C 69.417969 107.449219 68.921875 107.617188 68.421875 107.753906 C 68.847656 107.445312 69.28125 107.15625 69.710938 106.875 L 70.355469 106.457031 L 70.980469 106 C 71.398438 105.699219 71.824219 105.417969 72.234375 105.117188 C 72.636719 104.800781 73.046875 104.496094 73.453125 104.191406 C 74.660156 103.25 75.855469 102.289062 77.011719 101.28125 C 76.875 101.320312 76.738281 101.363281 76.601562 101.402344 C 75.101562 101.84375 73.578125 102.195312 72.039062 102.460938 C 71.273438 102.578125 70.503906 102.71875 69.730469 102.804688 L 68.578125 102.945312 L 67.414062 103.039062 C 66.640625 103.101562 65.859375 103.101562 65.089844 103.113281 C 64.3125 103.101562 63.535156 103.054688 62.761719 102.996094 L 67.3125 102.21875 C 68.820312 101.960938 70.308594 101.644531 71.789062 101.28125 C 73.257812 100.894531 74.714844 100.46875 76.144531 99.976562 C 76.503906 99.851562 76.855469 99.726562 77.210938 99.585938 C 77.566406 99.457031 77.917969 99.324219 78.265625 99.183594 C 78.949219 98.90625 79.65625 98.597656 80.273438 98.292969 C 81.035156 97.558594 81.792969 96.820312 82.539062 96.066406 C 83.984375 94.613281 85.398438 93.125 86.835938 91.613281 C 85.964844 93.519531 84.789062 95.265625 83.511719 96.921875 C 82.746094 97.902344 81.917969 98.84375 81.050781 99.742188 L 81.050781 99.746094 C 81.054688 99.742188 81.050781 99.75 81.042969 99.75 Z M 107.113281 116.957031 C 104.601562 120.386719 100.691406 123.175781 96.582031 124.265625 C 99.296875 121.75 102.125 118.890625 104.164062 115.800781 C 102.375 116.914062 100.398438 117.703125 98.339844 118.15625 C 103.394531 114.722656 107.695312 110.199219 110.863281 104.976562 C 111.058594 109.222656 109.628906 113.53125 107.113281 116.957031 Z M 61.484375 115.324219 C 59.574219 114.589844 57.371094 114.398438 55.402344 114.835938 C 55.253906 113.277344 55.132812 111.765625 54.984375 110.203125 C 54.421875 111.609375 53.976562 113.238281 53.570312 114.703125 C 52.605469 112.191406 51.964844 109.492188 51.757812 106.816406 C 51.503906 107.734375 51.355469 108.710938 51.105469 109.625 C 49.328125 108.792969 47.523438 108.273438 45.59375 107.941406 C 45.824219 106.359375 46.332031 104.703125 47.015625 103.257812 C 46.203125 104.152344 45.359375 105.167969 44.542969 106.066406 C 45.308594 103.402344 46.585938 100.890625 48.277344 98.699219 L 47.226562 98.109375 L 47.730469 97.363281 C 48.0625 96.871094 48.339844 96.332031 48.570312 95.773438 L 47.265625 93.808594 C 46.34375 94.757812 45.441406 95.757812 44.589844 96.777344 C 43.515625 98.058594 42.503906 99.386719 41.554688 100.75 C 40.589844 102.113281 39.738281 103.542969 38.941406 105 C 38.296875 106.183594 37.742188 107.40625 37.253906 108.65625 L 47.585938 111.128906 L 48.085938 111.25 L 48.203125 111.746094 L 49.089844 115.6875 C 50.359375 115.808594 51.605469 115.980469 52.855469 116.203125 C 54.300781 116.445312 55.738281 116.75 57.160156 117.109375 C 58.582031 117.476562 59.992188 117.890625 61.371094 118.40625 C 62.746094 118.929688 64.085938 119.554688 65.328125 120.332031 C 63.925781 119.902344 62.53125 119.53125 61.128906 119.199219 C 59.832031 118.910156 58.535156 118.640625 57.226562 118.410156 C 57.121094 120.539062 57.140625 122.671875 57.304688 124.800781 C 55.375 123.996094 53.34375 123.050781 51.539062 122.003906 C 53.691406 125.117188 56.820312 127.738281 60.386719 129.007812 C 57.601562 129.203125 54.65625 128.902344 52.109375 127.75 C 54.015625 129.398438 56.238281 130.695312 58.648438 131.425781 C 58.695312 132.878906 58.78125 134.246094 59.105469 135.621094 C 61.445312 137.039062 63.957031 138.472656 66.671875 139.9375 L 67.492188 118.597656 L 61.253906 116.460938 Z M 137.222656 60.480469 C 137.207031 60.457031 137.183594 60.429688 137.164062 60.402344 C 137.109375 60.324219 137.046875 60.246094 136.988281 60.164062 C 136.949219 60.117188 136.914062 60.070312 136.878906 60.027344 C 136.828125 59.964844 136.78125 59.90625 136.726562 59.839844 C 136.671875 59.773438 136.609375 59.707031 136.554688 59.640625 C 136.511719 59.589844 136.472656 59.546875 136.429688 59.496094 C 136.355469 59.414062 136.277344 59.332031 136.191406 59.246094 C 136.164062 59.21875 136.136719 59.183594 136.101562 59.152344 C 135.984375 59.03125 135.863281 58.914062 135.742188 58.792969 C 134.011719 57.15625 132.472656 56.5625 131.890625 56.5625 C 131.796875 56.5625 131.726562 56.578125 131.6875 56.605469 C 131.503906 56.910156 132.09375 58.628906 134.105469 60.527344 C 136.097656 62.414062 137.839844 62.914062 138.15625 62.71875 C 138.273438 62.5 138.03125 61.621094 137.222656 60.480469 Z M 130.484375 58.496094 C 130.40625 58.351562 130.351562 58.207031 130.296875 58.074219 L 128.722656 59.734375 C 128.746094 60.464844 128.882812 62.488281 129.738281 65.039062 C 130.621094 65.1875 132.746094 65.46875 135.585938 65.4375 L 136.757812 64.195312 C 135.515625 63.78125 134.125 62.832031 132.964844 61.734375 C 131.867188 60.695312 130.988281 59.546875 130.484375 58.496094 Z M 131.792969 69.4375 L 134.035156 67.070312 C 132.527344 67.035156 131.292969 66.914062 130.421875 66.808594 C 130.789062 67.660156 131.242188 68.542969 131.792969 69.4375 Z M 123.589844 65.15625 C 123.558594 66.253906 123.667969 70.589844 127.246094 74.246094 L 130.621094 70.679688 C 128.246094 66.96875 127.457031 63.449219 127.195312 61.347656 Z M 122.003906 66.832031 L 118.117188 70.933594 C 119.855469 71.796875 122.140625 71.988281 123.574219 72.011719 C 122.542969 70.050781 122.148438 68.1875 122.003906 66.832031 Z M 123.902344 73.667969 C 123.03125 73.667969 121.761719 73.613281 120.429688 73.367188 C 120.722656 74.699219 121.394531 76.949219 122.820312 78.917969 L 126.109375 75.445312 C 125.523438 74.859375 125.023438 74.253906 124.589844 73.652344 C 124.402344 73.664062 124.171875 73.667969 123.902344 73.667969 Z M 116.949219 72.171875 L 115.1875 74.027344 C 115.203125 74.992188 115.511719 78.527344 118.773438 83.1875 L 121.660156 80.136719 C 119.578125 77.40625 118.867188 74.191406 118.65625 72.921875 C 118.058594 72.726562 117.480469 72.480469 116.949219 72.171875 Z M 114.667969 81.050781 C 115.226562 81.574219 115.757812 81.992188 116.25 82.320312 C 114.578125 79.492188 113.925781 77.15625 113.679688 75.617188 L 112.253906 77.125 C 112.070312 77.429688 112.660156 79.148438 114.667969 81.050781 Z M 42.226562 90.148438 L 41.492188 90.132812 L 41.289062 87.890625 C 40.21875 87.851562 39.230469 87.71875 38.613281 87.621094 L 37.886719 89.246094 C 37.558594 94.316406 37.570312 98.40625 38.558594 102.363281 C 39.082031 101.492188 39.621094 100.640625 40.203125 99.816406 C 41.183594 98.398438 42.226562 97.03125 43.328125 95.714844 C 44.292969 94.570312 45.277344 93.472656 46.34375 92.402344 L 44.855469 90.171875 C 44.765625 90.171875 44.671875 90.175781 44.578125 90.175781 C 43.800781 90.175781 43.015625 90.164062 42.226562 90.148438 Z M 101.539062 69.984375 C 101.691406 69.824219 101.863281 69.699219 102.046875 69.597656 C 103.542969 68.800781 106.113281 69.835938 108.492188 71.214844 C 108.515625 70.671875 108.535156 70.132812 108.566406 69.609375 C 108.839844 65.007812 109.34375 60.570312 110.066406 56.355469 C 107.675781 60.035156 104.40625 64.339844 100.070312 68.648438 C 98.304688 70.402344 96.289062 72.207031 94.027344 73.992188 L 96.976562 85.078125 L 97.054688 85.105469 L 101.707031 80.1875 C 101.351562 79.6875 101.007812 79.195312 100.707031 78.714844 C 98.742188 75.582031 98.289062 73.417969 99.378906 72.269531 Z M 112.863281 44.535156 C 113.742188 41.699219 114.738281 39.007812 115.839844 36.53125 C 106.546875 29.339844 100.375 21.441406 96.761719 15.925781 L 50.445312 15.925781 C 46.832031 21.445312 40.660156 29.335938 31.371094 36.535156 C 33.125 40.472656 34.597656 44.882812 35.765625 49.671875 L 48.90625 29.21875 Z M 112.863281 44.535156 " fill-opacity="1" fill-rule="nonzero"/><path fill="#889baa" d="M 43 88.511719 C 71.195312 88.964844 88.914062 77.375 98.851562 67.527344 C 105.425781 61.007812 109.546875 54.386719 111.785156 50.136719 L 98.761719 47.757812 C 95.800781 53.65625 90.742188 57.339844 90.742188 57.339844 C 93.003906 54 93.714844 48.835938 93.714844 48.835938 C 89.210938 58.375 77.542969 65.222656 77.179688 65.4375 L 84.066406 63.585938 C 71.765625 72.382812 56.027344 75.003906 55.535156 75.082031 C 71.589844 68.519531 76.199219 53.789062 76.199219 53.789062 C 73.972656 57.5 67.691406 61.625 67.492188 61.753906 C 72.773438 55.832031 74.546875 47.867188 74.546875 47.867188 C 70.308594 57.128906 57.355469 62.292969 57.355469 62.292969 C 70.816406 48.40625 64.617188 34.679688 64.617188 34.679688 C 58.15625 42.765625 47.601562 43.6875 43.148438 43.6875 C 42.476562 43.6875 41.949219 43.664062 41.59375 43.644531 L 15.222656 84.710938 C 22.5625 86.511719 29.726562 87.691406 36.539062 88.214844 L 41.902344 76.171875 Z M 76.253906 75.769531 C 78.164062 74.78125 80.066406 73.800781 81.882812 72.667969 C 82.804688 72.128906 83.703125 71.539062 84.605469 70.964844 C 85.488281 70.359375 86.382812 69.773438 87.238281 69.132812 C 88.980469 67.898438 90.660156 66.566406 92.277344 65.164062 C 93.914062 63.78125 95.460938 62.304688 96.976562 60.789062 C 99.972656 57.726562 102.789062 54.453125 105.179688 50.832031 C 104.308594 52.824219 103.15625 54.683594 101.945312 56.5 C 100.707031 58.296875 99.367188 60.027344 97.917969 61.664062 C 95.027344 64.945312 91.753906 67.902344 88.203125 70.46875 C 84.652344 73.035156 80.8125 75.203125 76.800781 76.9375 C 72.777344 78.65625 68.585938 79.949219 64.308594 80.707031 C 68.414062 79.285156 72.40625 77.671875 76.253906 75.769531 Z M 42.933594 56.046875 C 42.933594 56.046875 48.933594 56.476562 53.886719 53.894531 C 53.886719 53.894531 48.527344 54.53125 44.550781 52.601562 C 44.550781 52.601562 55.136719 51.628906 62.0625 47.648438 C 62.0625 47.648438 56.992188 61 37.902344 64.445312 Z M 102.871094 76.433594 C 101.988281 75.027344 101.414062 73.816406 101.144531 72.808594 L 100.582031 73.402344 C 100.277344 73.722656 100.4375 75.167969 102.109375 77.835938 C 103.769531 80.472656 106.398438 83.550781 109.515625 86.496094 C 111.636719 88.507812 113.800781 90.277344 115.828125 91.683594 L 116.742188 90.546875 L 116.742188 90.542969 C 114.683594 89.097656 112.546875 87.324219 110.535156 85.421875 C 107.320312 82.375 104.597656 79.183594 102.871094 76.433594 Z M 111.949219 80.464844 C 111.734375 80.179688 111.539062 79.886719 111.367188 79.597656 C 111.363281 79.585938 111.355469 79.582031 111.355469 79.582031 C 110.539062 78.195312 110.25 76.839844 111.054688 75.988281 L 111.660156 75.351562 C 106.378906 71.308594 103.253906 70.570312 102.738281 71.113281 C 102.433594 71.4375 102.589844 72.882812 104.265625 75.550781 C 105.921875 78.1875 108.550781 81.269531 111.667969 84.214844 C 112.066406 84.589844 112.453125 84.945312 112.835938 85.292969 C 115.691406 87.738281 119.765625 87.539062 119.765625 87.539062 C 116.03125 85.84375 113.136719 82.160156 111.949219 80.464844 Z M 94.550781 79.347656 C 94.195312 78.183594 93.71875 76.726562 93.035156 75.714844 C 88.378906 79.625 82.574219 82.511719 76.789062 84.382812 C 74.066406 85.265625 72.734375 87.886719 70.316406 89.425781 C 70.480469 92.273438 70.023438 95.160156 69 97.828125 C 73.363281 96.578125 77.230469 94.464844 80.570312 91.394531 C 79.890625 92.75 79.121094 94.167969 78.445312 95.527344 C 85.5625 92.167969 91.109375 86.429688 94.550781 79.347656 Z M 84.90625 105.097656 C 88.109375 103.433594 91.109375 101.09375 93.40625 98.316406 C 92.785156 100.09375 92.171875 101.808594 91.273438 103.460938 C 94.898438 100.21875 98.027344 96 99.929688 91.519531 C 104.171875 91.929688 108.433594 92.140625 112.691406 92.144531 C 107.148438 90.09375 101.816406 87.996094 96.273438 85.945312 C 94.613281 93.382812 90.71875 100.175781 84.90625 105.097656 Z M 57.925781 101.472656 C 61.53125 104.019531 66.0625 104.953125 70.367188 103.984375 C 68.960938 105.957031 67.171875 107.703125 65.28125 109.21875 C 69.425781 109.40625 73.378906 108.058594 76.773438 105.671875 C 80.164062 103.285156 82.613281 99.742188 83.832031 95.777344 C 75.707031 99.421875 66.828125 101.378906 57.925781 101.472656 Z M 62.28125 116.175781 C 62.253906 115.367188 62.007812 114.539062 61.984375 113.730469 C 57.796875 109.359375 53.453125 104.875 49.265625 100.503906 C 49.0625 98.523438 48.835938 96.5 49.132812 94.527344 C 48.429688 93.972656 47.570312 93.613281 46.867188 93.054688 C 45.898438 94.136719 45.09375 94.964844 44.363281 96.214844 C 42.78125 98.929688 41.511719 101.832031 40.59375 104.835938 C 41.929688 103.21875 43.269531 101.632812 44.847656 100.253906 C 43.859375 102.804688 43.15625 105.542969 42.738281 108.242188 C 45.566406 109.011719 48.433594 109.878906 51.132812 111.015625 C 51.808594 113.203125 52.292969 115.355469 52.96875 117.539062 C 53.75 117.730469 54.324219 117.726562 55.105469 117.917969 C 56.441406 116.3125 58.28125 115.703125 60.332031 116.101562 C 60.382812 116.535156 60.304688 117.019531 60.355469 117.449219 C 63.070312 118.15625 65.695312 118.960938 68.351562 119.859375 C 68.359375 119.148438 68.136719 118.695312 67.941406 118.011719 C 66.074219 117.421875 64.148438 116.765625 62.28125 116.175781 Z M 63.746094 129.953125 C 61.875 128.953125 60.300781 127.585938 58.890625 126.003906 C 58.792969 123.421875 58.839844 120.832031 59.035156 118.253906 C 58.253906 118.164062 57.699219 117.839844 56.917969 117.75 C 56.527344 118.617188 56.136719 119.660156 55.746094 120.527344 C 54.222656 120.269531 52.53125 120.042969 50.988281 119.933594 C 50.625 122.066406 50.378906 124.382812 50.015625 126.519531 C 52.066406 131.472656 56.242188 135.53125 61.179688 137.625 C 60.550781 135.484375 60.492188 133.15625 60.675781 130.933594 C 61.753906 130.953125 62.839844 130.542969 63.746094 129.953125 Z M 105.265625 98.804688 C 100.191406 101.828125 95.53125 105.894531 91.9375 110.582031 C 91.945312 110.007812 92.183594 109.460938 92.355469 108.917969 C 87.339844 112.363281 83.890625 118.25 83.457031 124.320312 C 82.691406 125.015625 82.0625 125.609375 81.105469 126.007812 C 81.21875 127.417969 81.601562 128.859375 82.132812 130.175781 C 81.300781 129.738281 80.71875 129.273438 79.886719 128.835938 C 80.28125 132.613281 81.394531 136.316406 83.164062 139.675781 C 84.59375 138.433594 86.210938 137.292969 87.941406 136.507812 C 87.421875 133.230469 87.902344 129.859375 88.867188 126.6875 C 89.828125 123.515625 91.261719 120.507812 92.691406 117.515625 C 94.488281 113.753906 96.292969 109.96875 98.738281 106.59375 C 100.695312 103.890625 103.1875 101.417969 105.265625 98.804688 Z M 95.292969 118.199219 C 96.574219 118.882812 97.863281 119.28125 99.28125 118.976562 C 98 121.472656 96.148438 123.753906 94.140625 125.710938 C 99.855469 124.953125 105.046875 122.480469 108.5 117.867188 C 111.949219 113.253906 113.179688 107.59375 110.855469 102.320312 C 107.285156 108.925781 101.824219 114.492188 95.292969 118.199219 Z M 115.125 82.132812 C 115.339844 82.488281 115.675781 82.886719 116.082031 82.800781 C 116.347656 82.746094 116.535156 82.484375 116.585938 82.21875 C 116.636719 81.949219 116.578125 81.671875 116.511719 81.40625 C 116.035156 79.433594 115.234375 77.550781 114.363281 75.710938 C 114.136719 75.234375 113.445312 74.34375 112.875 74.976562 C 112.53125 75.351562 112.929688 76.34375 113.023438 76.757812 C 113.460938 78.65625 114.113281 80.460938 115.125 82.132812 Z M 116.734375 71.386719 C 116.457031 72.058594 115.808594 72.402344 115.195312 72.792969 C 115.996094 73.375 116.90625 73.820312 117.855469 74.09375 C 118.167969 77.058594 119.285156 79.984375 121.289062 82.199219 C 121.785156 81.507812 122.050781 80.832031 122.546875 80.140625 C 120.9375 77.808594 119.867188 75.03125 119.519531 72.222656 C 118.679688 71.78125 117.667969 71.523438 116.734375 71.386719 Z M 123.433594 72.980469 C 122.515625 72.945312 121.59375 72.902344 120.675781 72.863281 C 120.484375 72.855469 120.28125 72.851562 120.117188 72.953125 C 119.96875 73.042969 119.886719 73.207031 119.84375 73.378906 C 119.691406 74.027344 120.152344 74.695312 120.753906 74.988281 C 121.351562 75.277344 122.050781 75.269531 122.710938 75.226562 C 123.394531 75.179688 125.125 75.144531 125.296875 74.269531 C 125.488281 73.289062 124.089844 73.011719 123.433594 72.980469 Z M 122.648438 72.335938 C 122.984375 72.582031 123.5 72.621094 123.785156 72.320312 C 124.097656 71.980469 123.976562 71.441406 123.835938 71 C 123.246094 69.183594 122.785156 67.226562 122.023438 65.476562 C 119.933594 66.5 121.351562 69.714844 121.976562 71.308594 C 122.132812 71.691406 122.316406 72.089844 122.648438 72.335938 Z M 129.964844 69.40625 C 129.199219 66.058594 128.382812 63.042969 127.617188 59.695312 C 126.410156 60.609375 125.300781 61.640625 124.308594 62.785156 C 123.84375 63.316406 123.398438 63.882812 123.128906 64.535156 C 122.65625 65.664062 122.742188 66.960938 123.117188 68.125 C 123.488281 69.289062 124.164062 70.535156 124.800781 71.582031 C 124.476562 69.496094 124.609375 67.351562 124.988281 65.273438 C 125.46875 67.050781 126.441406 68.691406 127.773438 69.960938 C 127.0625 68.089844 126.71875 66.074219 126.785156 64.074219 C 127.71875 65.925781 128.785156 67.707031 129.964844 69.40625 Z M 133.667969 66.367188 C 133.328125 66.234375 132.960938 66.207031 132.601562 66.183594 C 132.125 66.152344 131.648438 66.121094 131.171875 66.089844 C 130.894531 66.070312 130.609375 66.054688 130.339844 66.128906 C 130.070312 66.203125 129.816406 66.394531 129.742188 66.664062 C 129.628906 67.066406 129.949219 67.46875 130.304688 67.695312 C 131 68.140625 134.761719 68.707031 134.390625 67.125 C 134.304688 66.773438 134 66.503906 133.667969 66.367188 Z M 135.898438 62.667969 C 133.628906 61.558594 131.6875 59.785156 130.375 57.621094 C 130.28125 57.46875 129.402344 58.066406 129.328125 58.203125 C 129.125 58.578125 129.285156 58.8125 129.425781 59.214844 C 129.710938 60.023438 130.164062 60.800781 130.65625 61.496094 C 131.660156 62.910156 133.007812 64.082031 134.5625 64.855469 C 135.082031 65.113281 135.652344 65.332031 136.230469 65.253906 C 136.804688 65.175781 137.363281 64.703125 137.351562 64.125 C 137.335938 63.398438 136.550781 62.980469 135.898438 62.667969 Z M 134.027344 60.894531 C 134.007812 60.25 133.976562 59.539062 134.25 58.933594 C 134.457031 58.480469 135.054688 58.089844 135.027344 57.546875 C 134.980469 56.535156 132.964844 55.9375 132.171875 55.734375 C 131.933594 55.667969 131.664062 55.621094 131.449219 55.746094 C 131.113281 55.933594 131.09375 56.410156 131.15625 56.792969 C 131.4375 58.496094 132.523438 60.046875 134.027344 60.894531 Z M 134.027344 60.894531 " fill-opacity="1" fill-rule="nonzero"/><path fill="#38485f" d="M 51.390625 89.929688 C 60.214844 89.300781 67.90625 87.480469 74.554688 84.972656 C 70.222656 88.789062 62.054688 95.371094 53.03125 99.453125 L 49.570312 97.515625 C 51.046875 94.832031 51.335938 91.4375 51.390625 89.929688 Z M 112.171875 51.152344 C 112.484375 50.035156 112.753906 49.097656 113.066406 47.980469 C 94.160156 41.855469 74.726562 36.5 55.371094 31.992188 C 51.257812 35.351562 46.953125 38.230469 42.242188 40.679688 C 41.34375 42.476562 40.378906 44.359375 39.480469 46.148438 C 45.261719 46.984375 51.242188 46.355469 56.71875 44.328125 C 55.148438 46.066406 52.921875 47.285156 50.679688 47.960938 C 53.296875 47.992188 55.921875 47.617188 58.4375 46.902344 C 53.042969 49.433594 47.058594 50.804688 41.097656 50.632812 C 42.113281 52.355469 43.378906 53.648438 45.277344 54.277344 C 43.894531 54.664062 42.082031 54.714844 40.757812 54.148438 C 38.5625 58.890625 35.394531 63.277344 32.265625 67.457031 C 41.242188 67.773438 50.617188 64.464844 57.269531 58.433594 C 56.167969 61.441406 54.140625 64.03125 51.652344 66.058594 C 57.304688 64.910156 62.828125 62.582031 67.472656 59.152344 C 65.890625 60.945312 64.351562 62.78125 62.765625 64.570312 C 65.296875 64.015625 67.613281 63.046875 69.855469 61.753906 C 64.585938 68.484375 56.863281 73.632812 48.652344 76.007812 C 63.597656 77.648438 79.382812 71.613281 89.523438 60.515625 C 88.375 60.835938 86.941406 61.324219 85.792969 61.644531 C 86.90625 60.746094 88.121094 59.625 89.234375 58.730469 C 89.378906 58.910156 89.445312 59.074219 89.589844 59.253906 C 93.675781 56.640625 97.265625 53.425781 100.238281 49.597656 C 100.699219 49.703125 101.160156 49.796875 101.621094 49.890625 C 93.242188 62.6875 81.273438 73.113281 67.433594 79.636719 C 83.191406 75.367188 97.15625 64.601562 105.332031 50.480469 C 107.597656 50.773438 109.882812 50.964844 112.171875 51.152344 Z M 48.539062 87.050781 C 48.074219 85.546875 47.910156 84.035156 47.441406 82.527344 C 46.832031 83.855469 46.324219 85.191406 45.714844 86.519531 C 44.898438 81.242188 44.398438 75.972656 43.585938 70.695312 C 41.125 74.882812 38.671875 79.097656 36.214844 83.289062 C 36.183594 81.207031 36.53125 78.972656 36.503906 76.890625 C 35.246094 78.996094 34.1875 80.835938 32.933594 82.941406 C 27.035156 84.21875 20.527344 84.800781 14.5 84.472656 C 21.847656 87.277344 29.179688 89.113281 37.046875 89.226562 C 37.433594 88.179688 37.917969 87.183594 38.300781 86.136719 C 39.164062 86.101562 40.34375 86.234375 41.199219 86.199219 C 41.585938 87.171875 42.222656 88.3125 42.605469 89.289062 C 50.652344 89.191406 58.660156 88.046875 66.515625 86.316406 C 60.589844 87.359375 54.519531 87.714844 48.539062 87.050781 Z M 119.023438 85.824219 C 116.75 84.003906 114.453125 82.160156 112.667969 79.863281 C 112.152344 79.199219 111.671875 78.46875 111.5625 77.636719 C 111.457031 76.804688 111.835938 75.859375 112.617188 75.554688 C 111.992188 74.953125 111.546875 74.46875 110.832031 73.976562 C 109.492188 74.867188 109.023438 76.703125 109.351562 78.277344 C 109.679688 79.851562 110.65625 81.210938 111.703125 82.429688 C 112.671875 83.554688 113.726562 84.613281 114.855469 85.578125 C 113.132812 85.136719 111.4375 84.332031 110.160156 83.089844 C 110.890625 84.710938 111.921875 86.316406 113.324219 87.40625 C 112.839844 88.03125 112.183594 88.636719 111.695312 89.265625 C 113.550781 91 115.355469 92.71875 117.210938 94.453125 C 118.824219 92.191406 120.417969 90.109375 122.035156 87.851562 C 121.007812 87.296875 119.941406 86.558594 119.023438 85.824219 Z M 119.023438 85.824219 " fill-opacity="1" fill-rule="nonzero"/><path fill="#36e9fd" d="M 50.417969 89.078125 C 59.257812 88.554688 68.230469 86.910156 76.488281 83.710938 C 75.714844 85.472656 74.132812 86.734375 72.539062 87.8125 C 70.941406 88.886719 69.335938 89.738281 68.105469 91.214844 C 64.875 92.082031 61.445312 92.480469 58.160156 91.855469 C 58.890625 92.535156 59.664062 93.242188 60.589844 93.621094 C 57.15625 93.640625 53.714844 92.644531 50.824219 90.789062 C 50.699219 90.191406 50.542969 89.667969 50.417969 89.078125 Z M 15.222656 84.710938 L 22.574219 77.199219 L 22.574219 80.703125 L 31.371094 65.269531 L 27.285156 69.425781 L 38.289062 48.800781 Z M 15.222656 84.710938 " fill-opacity="1" fill-rule="nonzero"/><path fill="#012130" d="M 139.640625 60.699219 C 139.125 59.621094 138.21875 58.4375 137.09375 57.367188 C 135.96875 56.304688 134.738281 55.46875 133.628906 55.007812 C 131.667969 54.195312 130.675781 54.8125 130.261719 55.25 L 118.996094 67.144531 C 120.921875 44.441406 128.570312 34.558594 128.648438 34.460938 L 129.457031 33.453125 L 128.359375 32.777344 C 110.957031 22.074219 103.007812 6.480469 102.929688 6.324219 L 102.613281 5.695312 L 44.605469 5.695312 L 44.285156 6.324219 C 44.207031 6.480469 36.28125 22.0625 18.859375 32.773438 L 17.761719 33.449219 L 18.566406 34.460938 C 18.632812 34.542969 25.09375 42.875 27.628906 61.753906 L 12.09375 85.9375 L 13.632812 86.328125 C 18.347656 87.523438 23.066406 88.476562 27.65625 89.164062 C 27.175781 96.933594 27.230469 105.984375 33.222656 115.378906 C 39.796875 125.679688 52.46875 135.234375 73.101562 145.449219 L 73.609375 145.699219 L 74.117188 145.449219 C 92.386719 136.410156 104.671875 127.644531 111.675781 118.65625 C 118.40625 110.019531 119.550781 102.128906 119.71875 96.136719 C 122.011719 97.070312 123.601562 97.011719 124.511719 96.035156 L 126.671875 93.757812 C 128.929688 91.371094 124.867188 85.796875 122.097656 82.535156 L 139.585938 64.066406 C 139.996094 63.636719 140.554688 62.613281 139.640625 60.699219 Z M 125.671875 75.449219 L 122.851562 78.421875 C 121.78125 76.832031 121.179688 75.089844 120.839844 73.757812 C 122.046875 73.945312 123.148438 73.984375 123.898438 73.984375 C 124.097656 73.984375 124.277344 73.980469 124.429688 73.976562 C 124.8125 74.488281 125.226562 74.984375 125.671875 75.449219 Z M 118.652344 70.828125 L 121.773438 67.53125 C 121.945312 68.660156 122.308594 70.121094 123.054688 71.683594 C 121.863281 71.628906 120.105469 71.4375 118.652344 70.828125 Z M 93.328125 126.492188 L 93.921875 121.664062 L 94.179688 119.472656 C 94.261719 118.847656 94.386719 118.238281 94.59375 117.441406 C 95.238281 115.042969 96.347656 112.5625 98.082031 109.644531 C 99.386719 107.457031 101.003906 105.199219 103.164062 102.542969 C 104.957031 100.339844 106.910156 97.738281 108.964844 95.523438 C 108.964844 95.523438 104.175781 99.089844 101.96875 101.492188 C 101.582031 101.832031 93.667969 108.835938 89.328125 117.421875 C 89.722656 115.917969 90.371094 113.964844 91.398438 112.023438 L 92.289062 110.34375 L 90.902344 111.648438 C 90.847656 111.703125 85.289062 117.042969 85.230469 126.191406 L 82.902344 128.355469 L 84.933594 132.675781 L 82.347656 130.628906 L 84.363281 137.429688 C 81.050781 139.332031 77.429688 141.261719 73.597656 143.171875 C 71.78125 142.261719 70.144531 141.425781 68.613281 140.613281 L 69.511719 117.207031 L 63.515625 115.15625 L 64.433594 110.597656 L 52.84375 101.6875 C 60.707031 98.308594 68.003906 92.976562 72.789062 89.046875 C 74.230469 88.445312 75.722656 87.648438 77.152344 86.722656 C 76.203125 87.714844 75.195312 88.597656 74.167969 89.332031 L 74.046875 89.421875 L 74.039062 89.570312 C 73.957031 91.125 73.292969 92.613281 72.746094 93.589844 L 72.296875 94.398438 L 73.148438 94.03125 C 77.546875 92.144531 81.488281 89.519531 84.65625 86.367188 C 83.902344 87.816406 83.019531 89.261719 82.117188 90.519531 L 80.914062 92.191406 L 82.566406 90.953125 C 87.03125 87.601562 90.660156 83.175781 93.09375 78.117188 L 95.121094 85.730469 C 94.9375 86.574219 94.671875 87.527344 94.355469 88.484375 L 94.335938 88.535156 C 93.996094 89.496094 93.648438 90.488281 93.230469 91.4375 L 93.15625 91.617188 C 92.976562 92.035156 92.789062 92.46875 92.582031 92.875 C 92.488281 93.054688 92.398438 93.238281 92.308594 93.425781 C 92.171875 93.710938 92.027344 94.011719 91.867188 94.296875 C 91.765625 94.480469 91.667969 94.671875 91.566406 94.859375 C 91.414062 95.140625 91.265625 95.421875 91.113281 95.691406 L 90.28125 97.066406 C 90.117188 97.355469 89.933594 97.625 89.734375 97.910156 C 89.625 98.070312 89.515625 98.230469 89.410156 98.390625 L 89.355469 98.472656 C 89.074219 98.898438 88.804688 99.296875 88.492188 99.691406 L 87.539062 100.972656 L 86.511719 102.222656 C 86.089844 102.765625 85.613281 103.285156 85.152344 103.789062 C 84.894531 104.070312 84.636719 104.351562 84.390625 104.636719 C 84 105.058594 83.585938 105.476562 83.179688 105.886719 C 82.832031 106.238281 82.46875 106.601562 82.117188 106.976562 L 80.171875 109.050781 L 82.523438 107.453125 C 82.933594 107.175781 83.339844 106.882812 83.734375 106.597656 L 83.875 106.492188 C 84 106.398438 84.128906 106.3125 84.257812 106.214844 C 84.574219 105.988281 84.90625 105.753906 85.203125 105.484375 L 86.441406 104.417969 C 86.824219 104.109375 87.171875 103.761719 87.503906 103.429688 L 87.65625 103.269531 C 89.386719 101.625 90.800781 99.769531 91.957031 98.167969 C 93.203125 96.410156 94.324219 94.449219 95.28125 92.359375 C 95.527344 91.855469 95.742188 91.332031 95.949219 90.816406 C 96.117188 90.4375 96.253906 90.046875 96.386719 89.667969 C 96.4375 89.523438 96.488281 89.378906 96.542969 89.226562 C 96.75 88.589844 96.960938 87.917969 97.136719 87.214844 L 111.894531 92.382812 C 112.445312 92.820312 114.808594 94.792969 117.332031 98.183594 C 116.675781 107.503906 113.085938 118.894531 91.910156 132.804688 C 91.765625 132.285156 91.605469 131.746094 91.4375 131.214844 C 91.195312 130.4375 90.9375 129.664062 90.652344 128.859375 Z M 60.414062 129.316406 L 61.917969 129.207031 L 60.5 128.703125 C 57.550781 127.65625 54.8125 125.648438 52.671875 122.984375 C 53.984375 123.675781 55.472656 124.371094 57.1875 125.085938 L 57.664062 125.285156 L 57.625 124.769531 C 57.476562 122.816406 57.445312 120.800781 57.535156 118.777344 C 58.605469 118.976562 59.765625 119.210938 61.0625 119.5 C 62.578125 119.859375 63.945312 120.230469 65.242188 120.628906 L 67.082031 121.1875 L 66.382812 139.414062 C 63.925781 138.078125 61.578125 136.734375 59.386719 135.414062 C 59.109375 134.160156 59.019531 132.902344 58.972656 131.40625 L 58.964844 131.179688 L 58.746094 131.113281 C 57.074219 130.609375 55.421875 129.792969 53.878906 128.71875 C 55.828125 129.28125 58.054688 129.484375 60.414062 129.316406 Z M 65.5 120.058594 C 64.339844 119.335938 63.027344 118.699219 61.484375 118.109375 C 60.253906 117.648438 58.90625 117.230469 57.238281 116.800781 C 55.785156 116.4375 54.328125 116.128906 52.914062 115.890625 C 51.695312 115.675781 50.527344 115.515625 49.351562 115.394531 L 48.511719 111.675781 L 48.351562 110.988281 L 37.6875 108.433594 C 38.171875 107.234375 38.675781 106.15625 39.222656 105.148438 C 40.109375 103.527344 40.957031 102.152344 41.820312 100.929688 C 42.773438 99.550781 43.789062 98.226562 44.835938 96.980469 C 45.628906 96.035156 46.429688 95.132812 47.226562 94.3125 L 48.21875 95.808594 C 47.996094 96.328125 47.746094 96.789062 47.472656 97.1875 L 46.773438 98.214844 L 47.8125 98.796875 C 46.207031 100.945312 44.976562 103.421875 44.242188 105.980469 L 43.867188 107.277344 L 44.777344 106.277344 C 45.1875 105.820312 45.613281 105.332031 46.027344 104.859375 C 45.683594 105.859375 45.425781 106.898438 45.28125 107.898438 L 45.238281 108.203125 L 45.539062 108.253906 C 47.550781 108.597656 49.324219 109.140625 50.972656 109.910156 L 51.308594 110.070312 L 51.40625 109.707031 C 51.5 109.371094 51.578125 109.027344 51.652344 108.6875 C 51.957031 110.742188 52.507812 112.824219 53.273438 114.8125 L 53.617188 115.703125 L 53.910156 114.648438 C 54.175781 113.691406 54.464844 112.640625 54.796875 111.644531 C 54.820312 111.941406 54.847656 112.234375 54.875 112.53125 C 54.941406 113.308594 55.011719 114.082031 55.085938 114.867188 L 55.121094 115.222656 L 55.46875 115.144531 C 57.269531 114.742188 59.3125 114.886719 61.117188 115.523438 L 60.890625 116.667969 L 67.167969 118.8125 L 67.082031 121.046875 Z M 29.917969 89.488281 C 31.976562 89.761719 33.972656 89.976562 35.867188 90.128906 C 35.5625 95.382812 35.667969 99.835938 37.078125 104.335938 C 36.363281 105.675781 35.707031 107.152344 35.070312 108.847656 L 34.628906 110.042969 L 39.980469 111.320312 C 39.3125 112.566406 38.230469 114.6875 37.226562 117.144531 C 30.371094 108.246094 29.316406 99.917969 29.917969 89.488281 Z M 101.226562 7.984375 C 102.894531 10.996094 110.855469 24.320312 126.125 34.078125 C 123.976562 37.332031 117.820312 48.394531 116.511719 69.773438 L 112.773438 73.71875 C 112.195312 73.28125 111.382812 72.683594 110.441406 72.0625 C 110.457031 71.265625 110.488281 70.5 110.535156 69.722656 C 110.890625 63.609375 111.671875 57.761719 112.851562 52.347656 C 114.730469 48.957031 115.625 46.648438 115.785156 46.214844 L 116.222656 45.011719 L 114.871094 44.6875 C 115.757812 41.875 116.777344 39.207031 117.902344 36.75 L 118.277344 35.921875 L 117.550781 35.371094 C 107.464844 27.679688 101.074219 18.980469 98.167969 14.480469 L 97.832031 13.957031 L 49.375 13.957031 L 49.039062 14.480469 C 46.128906 18.980469 39.746094 27.679688 29.65625 35.371094 L 28.929688 35.921875 L 29.308594 36.75 C 31.296875 41.082031 32.9375 46.0625 34.183594 51.550781 L 29.496094 58.839844 C 27.183594 44.394531 22.691406 36.523438 21.078125 34.082031 C 36.355469 24.324219 44.316406 10.996094 45.980469 7.988281 L 101.226562 7.988281 Z M 113.484375 76.285156 C 113.742188 77.515625 114.25 79.1875 115.25 81.148438 C 115.128906 81.042969 115.003906 80.933594 114.886719 80.820312 C 113.023438 79.054688 112.53125 77.601562 112.539062 77.28125 Z M 51.695312 90.222656 C 59.21875 89.664062 66.394531 88.195312 73.058594 85.851562 C 68.675781 89.59375 61.195312 95.382812 53.050781 99.097656 L 50 97.390625 C 51.304688 94.824219 51.617188 91.714844 51.695312 90.222656 Z M 50.617188 16.242188 L 96.589844 16.242188 C 100.136719 21.625 106.253906 29.46875 115.453125 36.632812 C 114.441406 38.933594 113.496094 41.464844 112.652344 44.164062 L 48.761719 28.855469 L 35.894531 48.882812 C 34.773438 44.441406 33.386719 40.320312 31.757812 36.632812 C 40.96875 29.453125 47.078125 21.617188 50.617188 16.242188 Z M 109.515625 57.75 C 108.917969 61.546875 108.496094 65.523438 108.253906 69.589844 C 108.234375 69.953125 108.214844 70.316406 108.199219 70.6875 C 105.316406 69.085938 103.199219 68.625 101.898438 69.320312 C 101.683594 69.433594 101.488281 69.582031 101.3125 69.761719 L 99.148438 72.046875 C 97.953125 73.308594 98.386719 75.609375 100.4375 78.878906 C 100.71875 79.328125 101.03125 79.777344 101.296875 80.15625 L 97.15625 84.535156 L 94.382812 74.109375 C 96.464844 72.457031 98.449219 70.695312 100.289062 68.871094 C 103.71875 65.460938 106.816406 61.726562 109.515625 57.75 Z M 38.199219 89.320312 L 38.804688 87.964844 C 39.574219 88.082031 40.3125 88.15625 41 88.191406 L 41.199219 90.4375 L 42.214844 90.457031 C 42.867188 90.472656 43.71875 90.488281 44.574219 90.488281 C 44.613281 90.488281 44.648438 90.488281 44.6875 90.488281 L 45.933594 92.363281 C 45 93.3125 44.066406 94.34375 43.082031 95.511719 C 41.988281 96.820312 40.933594 98.207031 39.941406 99.628906 C 39.527344 100.214844 39.113281 100.84375 38.6875 101.53125 C 37.875 97.808594 37.902344 93.925781 38.199219 89.320312 Z M 115.769531 91.257812 C 113.808594 89.875 111.726562 88.15625 109.730469 86.265625 C 106.644531 83.351562 104.035156 80.292969 102.378906 77.664062 C 100.65625 74.925781 100.710938 73.757812 100.8125 73.617188 L 101.003906 73.417969 C 101.320312 74.34375 101.859375 75.414062 102.605469 76.601562 C 104.351562 79.378906 107.089844 82.59375 110.320312 85.648438 C 112.269531 87.492188 114.332031 89.203125 116.289062 90.605469 Z M 41.769531 43.96875 C 42.199219 43.988281 42.667969 44 43.160156 44 C 47.421875 44 57.921875 43.140625 64.53125 35.296875 C 64.933594 36.40625 65.832031 39.355469 65.726562 43.300781 C 65.597656 47.953125 64.007812 54.984375 57.132812 62.074219 L 56.109375 63.132812 L 57.476562 62.589844 C 57.597656 62.539062 68.304688 58.195312 73.457031 50.464844 C 72.492188 53.292969 70.5625 57.84375 67.265625 61.542969 L 65.710938 63.277344 L 67.671875 62.015625 C 67.726562 61.980469 72.1875 59.078125 75.011719 55.894531 C 73.027344 60.230469 67.441406 69.875 55.421875 74.789062 L 52.878906 75.828125 L 55.59375 75.394531 C 56.253906 75.285156 71.878906 72.695312 84.253906 63.847656 L 85.671875 62.835938 L 79.117188 64.59375 C 82.390625 62.425781 89.164062 57.410156 92.996094 50.875 C 92.574219 52.660156 91.792969 55.242188 90.488281 57.167969 L 89.472656 58.664062 L 90.933594 57.597656 C 90.984375 57.5625 95.964844 53.890625 98.941406 48.113281 L 111.308594 50.371094 C 108.980469 54.714844 104.9375 61.054688 98.632812 67.304688 C 88.800781 77.054688 71.230469 88.5625 43.292969 88.203125 L 42.117188 74.9375 L 36.34375 87.882812 C 29.769531 87.367188 22.835938 86.234375 15.726562 84.507812 Z M 104.535156 75.386719 C 102.8125 72.648438 102.867188 71.476562 102.972656 71.335938 C 103.25 71.066406 105.890625 71.390625 111.191406 75.390625 L 110.828125 75.773438 C 110.003906 76.644531 110.09375 78.046875 111.078125 79.726562 L 111.097656 79.765625 C 111.285156 80.082031 111.488281 80.382812 111.691406 80.652344 C 112.667969 82.046875 115.128906 85.234375 118.363281 87.164062 C 116.960938 87.007812 114.765625 86.527344 113.046875 85.0625 C 112.664062 84.71875 112.28125 84.367188 111.890625 83.992188 C 108.792969 81.0625 106.179688 78.003906 104.535156 75.386719 Z M 117.007812 72.566406 C 117.429688 72.792969 117.886719 72.992188 118.378906 73.160156 C 118.621094 74.515625 119.335938 77.492188 121.25 80.113281 L 118.816406 82.683594 C 115.9375 78.445312 115.550781 75.222656 115.511719 74.148438 Z M 123.902344 65.28125 L 126.972656 62.039062 C 127.320312 64.257812 128.175781 67.367188 130.222656 70.640625 L 127.242188 73.785156 C 124.117188 70.429688 123.882812 66.578125 123.902344 65.28125 Z M 133.324219 67.367188 L 131.851562 68.921875 C 131.519531 68.351562 131.210938 67.773438 130.933594 67.1875 C 131.722656 67.269531 132.523438 67.332031 133.324219 67.367188 Z M 131.976562 56.886719 C 132.503906 56.945312 133.910156 57.5 135.535156 59.042969 C 135.652344 59.152344 135.765625 59.261719 135.875 59.378906 L 135.960938 59.464844 C 136.039062 59.550781 136.117188 59.628906 136.199219 59.726562 C 136.234375 59.757812 136.261719 59.789062 136.308594 59.851562 L 136.371094 59.917969 C 136.40625 59.957031 136.441406 60 136.476562 60.039062 L 136.960938 60.667969 C 137.578125 61.53125 137.800781 62.160156 137.851562 62.445312 C 137.371094 62.390625 136 61.902344 134.316406 60.304688 C 132.628906 58.710938 132.0625 57.359375 131.976562 56.886719 Z M 129.046875 59.855469 L 130.199219 58.636719 C 130.722656 59.726562 131.628906 60.90625 132.75 61.964844 C 133.867188 63.023438 135.101562 63.863281 136.207031 64.324219 L 135.453125 65.125 C 132.804688 65.140625 130.855469 64.898438 129.980469 64.761719 C 129.238281 62.472656 129.078125 60.652344 129.046875 59.855469 Z M 76.925781 77.226562 C 80.988281 75.46875 84.847656 73.28125 88.390625 70.722656 C 91.992188 68.117188 95.273438 65.140625 98.15625 61.871094 C 99.570312 60.269531 100.9375 58.523438 102.210938 56.675781 C 103.304688 55.035156 104.410156 52.601562 105.335938 50.480469 C 105.335938 50.480469 100.113281 57.128906 96.757812 60.5625 C 94.984375 62.335938 93.5 63.71875 92.078125 64.921875 C 90.429688 66.351562 88.742188 67.675781 87.050781 68.871094 C 86.433594 69.339844 85.78125 69.785156 85.148438 70.214844 C 84.90625 70.375 84.671875 70.539062 84.441406 70.695312 L 83.808594 71.097656 C 83.132812 71.535156 82.429688 71.980469 81.71875 72.394531 C 79.953125 73.5 78.058594 74.480469 76.230469 75.425781 L 76.117188 75.484375 C 72.496094 77.273438 68.703125 79.179688 64.3125 80.703125 C 64.308594 80.703125 72.761719 79.003906 76.925781 77.226562 Z M 81.183594 100.054688 L 81.398438 99.832031 C 82.289062 98.902344 83.066406 98.011719 83.769531 97.109375 L 83.769531 97.105469 C 85.285156 95.136719 86.351562 93.429688 87.128906 91.730469 L 87.917969 90.011719 L 86.324219 91.6875 C 84.957031 93.125 83.667969 94.480469 82.324219 95.835938 C 81.570312 96.589844 80.820312 97.328125 80.097656 98.019531 C 79.535156 98.292969 78.867188 98.589844 78.15625 98.882812 C 77.808594 99.019531 77.460938 99.15625 77.101562 99.285156 C 76.757812 99.421875 76.410156 99.542969 76.050781 99.667969 C 74.785156 100.105469 73.40625 100.519531 71.722656 100.960938 C 70.160156 101.347656 68.703125 101.648438 67.269531 101.894531 L 60.1875 103.109375 L 62.746094 103.300781 C 63.488281 103.359375 64.285156 103.410156 65.101562 103.417969 L 65.542969 103.414062 C 66.167969 103.40625 66.808594 103.398438 67.445312 103.34375 L 68.621094 103.25 L 69.773438 103.113281 C 70.351562 103.050781 70.933594 102.957031 71.496094 102.863281 C 71.695312 102.832031 71.894531 102.796875 72.101562 102.765625 C 73.296875 102.5625 74.503906 102.296875 75.707031 101.976562 C 74.972656 102.585938 74.175781 103.226562 73.269531 103.933594 C 72.871094 104.230469 72.457031 104.542969 72.054688 104.859375 C 71.832031 105.019531 71.605469 105.179688 71.378906 105.335938 C 71.183594 105.46875 70.988281 105.605469 70.796875 105.742188 L 70.1875 106.1875 L 69.539062 106.609375 C 69.125 106.882812 68.679688 107.175781 68.238281 107.5 L 66.816406 108.535156 L 68.507812 108.058594 C 68.988281 107.921875 69.46875 107.765625 69.9375 107.609375 L 70.011719 107.585938 C 70.296875 107.488281 70.546875 107.402344 70.78125 107.308594 L 71.507812 106.996094 C 71.671875 106.914062 71.835938 106.84375 72.003906 106.769531 C 72.316406 106.621094 72.632812 106.476562 72.953125 106.320312 C 73.414062 106.066406 73.871094 105.804688 74.339844 105.539062 C 76.242188 104.386719 77.957031 103.113281 79.441406 101.75 C 79.992188 101.253906 80.542969 100.714844 81.183594 100.054688 Z M 62.355469 47.765625 L 62.671875 46.9375 L 61.90625 47.378906 C 55.121094 51.28125 44.625 52.28125 44.523438 52.292969 L 43.390625 52.394531 L 44.414062 52.890625 C 47.070312 54.179688 50.277344 54.351562 52.207031 54.3125 C 47.757812 56.050781 43.007812 55.742188 42.957031 55.738281 L 42.765625 55.726562 L 37.277344 64.886719 L 37.960938 64.765625 C 57 61.320312 62.304688 47.898438 62.355469 47.765625 Z M 107.367188 117.144531 C 109.984375 113.578125 111.371094 109.140625 111.183594 104.960938 L 111.136719 103.925781 L 110.597656 104.8125 C 107.464844 109.976562 103.167969 114.503906 98.167969 117.894531 L 96.8125 118.8125 L 98.410156 118.460938 C 100.0625 118.101562 101.636719 117.53125 103.109375 116.765625 C 101.054688 119.566406 98.46875 122.085938 96.371094 124.03125 L 95.441406 124.894531 L 96.667969 124.570312 C 100.757812 123.484375 104.761719 120.710938 107.367188 117.144531 Z M 107.367188 117.144531 " fill-opacity="1" fill-rule="nonzero"/></svg>